<?xml version="1.0" standalone="no"?><!DOCTYPE svg PUBLIC "-//W3C//DTD SVG 1.1//EN" "http://www.w3.org/Graphics/SVG/1.1/DTD/svg11.dtd"><svg t="1634700869099" class="icon" viewBox="0 0 1024 1024" version="1.1" xmlns="http://www.w3.org/2000/svg" p-id="1613" width="64" height="64" xmlns:xlink="http://www.w3.org/1999/xlink"><defs><style type="text/css"></style></defs><path d="M781.67821275 320.80665471a95.59667265 95.59667265 0 0 1 88.85710695 60.32150074L942.18502508 561.61467324V846.58835365a95.59667265 95.59667265 0 0 1-95.59667143 95.59667143H177.41164635a95.59667265 95.59667265 0 0 1-95.59667143-95.59667143v-281.1976126l71.84089816-183.78460244A95.59667265 95.59667265 0 0 1 242.70417405 320.80665471h538.9740387z m-435.25164966 262.89084947H129.61331063V846.58835365a47.79833571 47.79833571 0 0 0 42.20593038 47.46374774L177.41164635 894.38668937h669.1767073a47.79833571 47.79833571 0 0 0 47.46374774-42.20593038L894.38668937 846.58835365v-262.89084947h-216.81325246a167.29417682 167.29417682 0 0 1-331.14687382 0z m435.25164966-215.09251254H242.70417405a47.79833571 47.79833571 0 0 0-42.06253641 25.09412641l-2.48551348 5.30561493-53.53413625 136.89443548h218.82078277l-0.04779759 0.57357957A23.99476485 23.99476485 0 0 1 392.50416011 559.79833571a119.49583989 119.49583989 0 1 0 238.99167978 0 23.89916846 23.89916846 0 0 1 22.79980693-23.89916725h226.22952561l-54.39450742-137.13342706a47.79833571 47.79833571 0 0 0-38.62105535-29.82616178L781.67821275 368.60499164z m-247.02180103-358.48752211a23.89916846 23.89916846 0 0 1 23.51678047 19.59731867l0.38238679 4.30184978v188.42104143a23.89916846 23.89916846 0 0 1-47.41594893 4.30184978l-0.3823868-4.30184978V34.01663798a23.89916846 23.89916846 0 0 1 23.89916847-23.89916845z m-293.09939802 6.4527765l2.86790025 3.25028583 139.14095616 188.42104142a23.89916846 23.89916846 0 0 1-35.56196109 31.5947005l-2.86790026-3.20248824-139.14095738-188.42104142a23.89916846 23.89916846 0 0 1 35.56196232-31.64249809z m618.36707491-1.81633752a23.89916846 23.89916846 0 0 1 7.31314645 29.73056538l-2.24652189 3.68047142-138.71077178 188.42104142a23.89916846 23.89916846 0 0 1-40.72418328-24.66394081l2.19872431-3.68047264 138.75856938-188.37324261a23.89916846 23.89916846 0 0 1 33.45883561-5.11442216z" fill="#1890FF" p-id="1614"></path></svg>